# This file uses centimeters as units for non-parametric coordinates.

g default
v -0.000000 -2.254185 6.957716
v -0.000000 -4.177042 5.673535
v -0.000000 -1.895832 6.457125
v -0.000000 -3.818689 5.172944
v -0.000000 -1.520008 5.937640
v -0.000000 -3.442865 4.653458
v -0.000000 -1.164192 5.378229
v -0.000000 -3.087049 4.094047
v -0.000000 -0.897249 4.784654
v -0.000000 -2.820105 3.500472
v -0.000000 -0.748127 4.166110
v -0.000000 -2.670984 2.881929
v -0.000000 -0.696782 3.534257
v -0.000000 -2.619639 2.250075
v 0.000000 -0.706102 2.902074
v 0.000000 -2.628959 1.617892
v -0.000000 -0.733474 2.282568
v -0.000000 -2.653189 0.998386
v -0.000000 -0.732424 1.687500
v -0.000000 -2.649834 0.403318
v -0.000000 -0.660431 1.126207
v -0.000000 -2.583287 -0.157974
v -0.000000 -0.475176 0.604694
v -0.000000 -2.398033 -0.679488
v -0.000000 -0.150322 0.125026
v -0.000000 -2.073178 -1.159156
v -0.000000 0.341076 -0.314864
v -0.000000 -1.589996 -1.599045
v -0.000000 1.035524 -0.720976
v -0.000000 -0.891648 -2.005158
v -0.000000 1.911960 -1.109890
v -0.000000 0.011716 -2.386834
v -0.000000 2.792308 -1.534414
v 0.000000 0.986184 -2.781234
v -0.000000 3.617128 -1.991415
v -0.000000 1.710176 -3.240872
v -0.000000 4.310534 -2.479172
v -0.000000 2.297742 -3.749695
v -0.000000 4.804578 -2.999492
v -0.000000 2.807854 -4.275304
v 0.000000 5.199736 -3.515615
v -0.000000 3.253258 -4.798293
v -0.000000 5.529714 -4.038433
v -0.000000 3.606859 -5.322615
v -0.000000 5.856243 -4.552079
v -0.000000 3.933385 -5.836261
vt 0.000000 0.000000
vt 0.174599 0.000000
vt 0.000000 0.045455
vt 0.174599 0.045455
vt 0.000000 0.090909
vt 0.174599 0.090909
vt 0.000000 0.136364
vt 0.174599 0.136364
vt 0.000000 0.181818
vt 0.174599 0.181818
vt 0.000000 0.227273
vt 0.174599 0.227273
vt 0.000000 0.272727
vt 0.174599 0.272727
vt 0.000000 0.318182
vt 0.174599 0.318182
vt 0.000000 0.363636
vt 0.174599 0.363636
vt 0.000000 0.409091
vt 0.174599 0.409091
vt 0.000000 0.454545
vt 0.174599 0.454545
vt 0.000000 0.500000
vt 0.174599 0.500000
vt 0.000000 0.545455
vt 0.174599 0.545455
vt 0.000000 0.590909
vt 0.174599 0.590909
vt 0.000000 0.636364
vt 0.174599 0.636364
vt 0.000000 0.681818
vt 0.174599 0.681818
vt 0.000000 0.727273
vt 0.174599 0.727273
vt 0.000000 0.772727
vt 0.174599 0.772727
vt 0.000000 0.818182
vt 0.174599 0.818182
vt 0.000000 0.863636
vt 0.174599 0.863636
vt 0.000000 0.909091
vt 0.174599 0.909091
vt 0.000000 0.954545
vt 0.174599 0.954546
vt 0.000000 1.000000
vt 0.174599 1.000000
vn 1.000000 -0.000000 0.000000
vn 1.000000 -0.000000 0.000000
vn 1.000000 -0.000000 0.000000
vn 1.000000 -0.000000 0.000000
vn 1.000000 0.000000 0.000000
vn 1.000000 0.000000 0.000000
vn 1.000000 0.000000 0.000000
vn 1.000000 0.000000 0.000000
vn 1.000000 -0.000000 0.000000
vn 1.000000 -0.000000 0.000000
vn 1.000000 -0.000000 0.000000
vn 1.000000 -0.000000 0.000000
vn 1.000000 -0.000000 0.000000
vn 1.000000 -0.000000 0.000000
vn 1.000000 -0.000000 -0.000000
vn 1.000000 -0.000000 0.000000
vn 1.000000 0.000000 -0.000000
vn 1.000000 0.000000 -0.000000
vn 1.000000 -0.000000 0.000000
vn 1.000000 0.000000 0.000000
vn 1.000000 -0.000000 0.000000
vn 1.000000 -0.000000 0.000000
vn 1.000000 -0.000000 0.000000
vn 1.000000 0.000000 0.000000
vn 1.000000 0.000000 0.000000
vn 1.000000 0.000000 0.000000
vn 1.000000 0.000000 0.000000
vn 1.000000 -0.000000 0.000000
vn 1.000000 -0.000000 0.000000
vn 1.000000 -0.000000 0.000000
vn 1.000000 -0.000000 0.000000
vn 1.000000 -0.000000 0.000000
vn 1.000000 -0.000000 0.000000
vn 1.000000 0.000000 0.000000
vn 1.000000 0.000000 -0.000000
vn 1.000000 0.000000 -0.000000
vn 1.000000 0.000000 0.000000
vn 1.000000 0.000000 0.000000
vn 1.000000 -0.000000 0.000000
vn 1.000000 -0.000000 0.000000
vn 1.000000 -0.000000 -0.000000
vn 1.000000 -0.000000 -0.000000
vn 1.000000 -0.000000 -0.000000
vn 1.000000 -0.000000 -0.000000
vn 1.000000 0.000000 0.000000
vn 1.000000 0.000000 0.000000
s 1
g pPlane2
f 1/1/1 2/2/2 4/4/3 3/3/4
f 3/3/4 4/4/3 6/6/5 5/5/6
f 5/5/6 6/6/5 8/8/7 7/7/8
f 7/7/8 8/8/7 10/10/9 9/9/10
f 9/9/10 10/10/9 12/12/11 11/11/12
f 11/11/12 12/12/11 14/14/13 13/13/14
f 13/13/14 14/14/13 16/16/15 15/15/16
f 15/15/16 16/16/15 18/18/17 17/17/18
f 17/17/18 18/18/17 20/20/19 19/19/20
f 19/19/20 20/20/19 22/22/21 21/21/22
f 21/21/22 22/22/21 24/24/23 23/23/24
f 23/23/24 24/24/23 26/26/25 25/25/26
f 25/25/26 26/26/25 28/28/27 27/27/28
f 27/27/28 28/28/27 30/30/29 29/29/30
f 29/29/30 30/30/29 32/32/31 31/31/32
f 31/31/32 32/32/31 34/34/33 33/33/34
f 33/33/34 34/34/33 36/36/35 35/35/36
f 35/35/36 36/36/35 38/38/37 37/37/38
f 37/37/38 38/38/37 40/40/39 39/39/40
f 39/39/40 40/40/39 42/42/41 41/41/42
f 41/41/42 42/42/41 44/44/43 43/43/44
f 43/43/44 44/44/43 46/46/45 45/45/46
