# This file uses centimeters as units for non-parametric coordinates.

mtllib LockPlane_Unlocked.mtl
g default
v -0.500000 -0.500000 0.000000
v 0.500000 -0.500000 0.000000
v -0.500000 0.500000 -0.000000
v 0.500000 0.500000 -0.000000
vt 0.496390 0.011439
vt 0.967699 0.011439
vt 0.496390 0.482748
vt 0.967699 0.482748
vn 0.000000 0.000000 1.000000
vn 0.000000 0.000000 1.000000
vn 0.000000 0.000000 1.000000
vn 0.000000 0.000000 1.000000
s off
g pPlane6
usemtl initialShadingGroup
f 1/1/1 2/2/2 4/4/3 3/3/4
