# This file uses centimeters as units for non-parametric coordinates.

g default
v -0.334462 0.018938 0.143263
v -0.342018 0.011383 0.144097
v -0.342018 0.011383 -0.144097
v -0.334462 0.018938 -0.143263
v -0.301543 0.011383 0.180117
v -0.300879 0.018938 0.172562
v 0.301543 0.011383 0.180117
v 0.300879 0.018938 0.172562
v 0.342018 0.011383 0.144097
v 0.334462 0.018938 0.143263
v 0.334462 0.018938 -0.143263
v 0.342018 0.011383 -0.144097
v -0.301543 0.011383 -0.180117
v -0.300879 0.018938 -0.172562
v 0.301543 0.011383 -0.180117
v 0.300879 0.018938 -0.172562
v -0.331918 0.018938 0.154646
v -0.338937 0.011383 0.157881
v -0.330163 0.011383 0.169567
v -0.325018 0.018938 0.163837
v -0.317032 0.011383 0.177375
v -0.314356 0.018938 0.170176
v 0.317032 0.011383 0.177375
v 0.314356 0.018938 0.170176
v 0.330163 0.011383 0.169567
v 0.325018 0.018938 0.163837
v 0.331918 0.018938 0.154646
v 0.338937 0.011383 0.157881
v -0.338937 0.011383 -0.157881
v -0.331918 0.018938 -0.154646
v -0.330163 0.011383 -0.169567
v -0.325018 0.018938 -0.163837
v -0.317032 0.011383 -0.177375
v -0.314356 0.018938 -0.170176
v 0.317032 0.011383 -0.177375
v 0.314356 0.018938 -0.170176
v 0.330163 0.011383 -0.169567
v 0.325018 0.018938 -0.163837
v 0.338937 0.011383 -0.157881
v 0.331918 0.018938 -0.154646
v -0.301128 -0.018938 0.175395
v -0.301543 -0.014216 0.180117
v 0.301128 -0.018938 0.175395
v 0.301543 -0.014216 0.180117
v -0.337296 -0.018938 0.143576
v -0.342018 -0.014216 0.144097
v -0.337296 -0.018938 -0.143576
v -0.342018 -0.014216 -0.144097
v -0.301128 -0.018938 -0.175395
v -0.301543 -0.014216 -0.180117
v 0.301128 -0.018938 -0.175395
v 0.301543 -0.014216 -0.180117
v 0.337296 -0.018938 0.143576
v 0.342018 -0.014216 0.144097
v 0.337296 -0.018938 -0.143576
v 0.342018 -0.014216 -0.144097
v -0.334550 -0.018938 0.155859
v -0.338937 -0.014216 0.157881
v -0.326947 -0.018938 0.165986
v -0.330163 -0.014216 0.169567
v -0.315360 -0.018938 0.172876
v -0.317032 -0.014216 0.177375
v 0.315360 -0.018938 0.172876
v 0.317032 -0.014216 0.177375
v 0.326947 -0.018938 0.165986
v 0.330163 -0.014216 0.169567
v 0.334550 -0.018938 0.155859
v 0.338937 -0.014216 0.157881
v -0.334550 -0.018938 -0.155859
v -0.338937 -0.014216 -0.157881
v -0.326947 -0.018938 -0.165986
v -0.330163 -0.014216 -0.169567
v -0.315360 -0.018938 -0.172876
v -0.317032 -0.014216 -0.177375
v 0.315360 -0.018938 -0.172876
v 0.317032 -0.014216 -0.177375
v 0.326947 -0.018938 -0.165986
v 0.330163 -0.014216 -0.169567
v 0.334550 -0.018938 -0.155859
v 0.338937 -0.014216 -0.157881
vt 0.950769 0.753054
vt 0.948995 0.763978
vt 0.947430 0.752098
vt 0.948445 0.441033
vt 0.948469 0.439156
vt 0.948602 0.426464
vt 0.474491 0.082000
vt 0.474317 0.069339
vt 0.473018 0.084391
vt 0.472056 0.741900
vt 0.471765 0.743813
vt 0.472506 0.759022
vt 0.989372 0.359680
vt 0.989370 0.371950
vt 0.989965 0.357822
vt 0.991166 0.048182
vt 0.991042 0.045916
vt 0.990733 0.033695
vt 0.062487 0.072864
vt 0.062418 0.731399
vt 0.062298 0.071506
vt 0.062372 0.056760
vt 0.062485 0.732792
vt 0.062537 0.747854
vt 0.947455 0.768424
vt 0.958232 0.782638
vt 0.946994 0.780604
vt 0.473431 0.053901
vt 0.473933 0.066733
vt 0.473063 0.761406
vt 0.484309 0.776155
vt 0.473073 0.774472
vt 0.991013 0.387136
vt 0.990305 0.374575
vt 0.948640 0.423106
vt 0.948599 0.410670
vt 0.051038 0.038789
vt 0.062479 0.040615
vt 0.062283 0.053906
vt 0.062486 0.750930
vt 0.062456 0.764532
vt 0.979934 0.016439
vt 0.991461 0.018518
vt 0.990918 0.030898
vt 0.079898 0.098610
vt 0.454778 0.752395
vt 0.435376 0.064928
vt 0.445360 0.072425
vt 0.099386 0.064889
vt 0.111753 0.062126
vt 0.423011 0.062162
vt 0.082503 0.083967
vt 0.454839 0.098650
vt 0.089398 0.072384
vt 0.452247 0.084008
vt 0.079838 0.752362
vt 0.452185 0.767036
vt 0.082429 0.767004
vt 0.445296 0.778618
vt 0.089315 0.778587
vt 0.435310 0.786114
vt 0.422944 0.788876
vt 0.111665 0.788850
vt 0.099299 0.786085
vt 0.533139 0.099603
vt 0.533217 0.754637
vt 0.536213 0.772191
vt 0.574313 0.053496
vt 0.574913 0.060758
vt 0.558454 0.056931
vt 0.887472 0.053308
vt 0.928726 0.099391
vt 0.925731 0.081812
vt 0.928770 0.754605
vt 0.574440 0.800700
vt 0.575034 0.793440
vt 0.887542 0.800677
vt 0.886947 0.793416
vt 0.903411 0.797254
vt 0.561574 0.063750
vt 0.544996 0.067011
vt 0.536109 0.082046
vt 0.545110 0.787223
vt 0.558574 0.797285
vt 0.903351 0.056712
vt 0.916824 0.066780
vt 0.925764 0.772172
vt 0.916865 0.787188
vt 0.900287 0.790432
vt 0.911232 0.071802
vt 0.886883 0.060572
vt 0.900227 0.063547
vt 0.918770 0.769593
vt 0.540474 0.754175
vt 0.561693 0.790459
vt 0.550695 0.782204
vt 0.911285 0.782176
vt 0.543212 0.769622
vt 0.921511 0.754143
vt 0.540378 0.100066
vt 0.921467 0.099854
vt 0.543104 0.084608
vt 0.918724 0.084392
vt 0.550580 0.072015
vt 0.484695 0.083680
vt 0.511708 0.742654
vt 0.022780 0.072146
vt 0.050723 0.732123
vt 0.978413 0.358679
vt 0.951956 0.047145
vt 0.960051 0.440168
vt 0.986702 0.753151
vt 0.986113 0.768188
vt 0.959017 0.753050
vt 0.985483 0.783747
vt 0.958836 0.767098
vt 0.511373 0.050906
vt 0.511991 0.066997
vt 0.484396 0.051819
vt 0.512605 0.083715
vt 0.484911 0.067678
vt 0.511846 0.759646
vt 0.483733 0.742640
vt 0.511900 0.776142
vt 0.484230 0.759900
vt 0.951417 0.389958
vt 0.950919 0.373999
vt 0.979236 0.389357
vt 0.950772 0.358606
vt 0.978488 0.373532
vt 0.960177 0.424838
vt 0.987845 0.440278
vt 0.960224 0.409009
vt 0.988066 0.409105
vt 0.987961 0.424983
vt 0.050823 0.055225
vt 0.023348 0.038414
vt 0.050789 0.072149
vt 0.023073 0.054949
vt 0.050770 0.749377
vt 0.022697 0.732120
vt 0.050756 0.766142
vt 0.022716 0.766131
vt 0.022711 0.749386
vt 0.979560 0.032130
vt 0.952399 0.016188
vt 0.979622 0.047235
vt 0.952047 0.031921
vn -0.706725 0.707457 0.006627
vn -0.706725 0.707457 0.006627
vn -0.634456 0.715070 0.293497
vn -0.634456 0.715070 0.293496
vn -0.706725 0.707457 -0.006627
vn -0.706725 0.707457 -0.006627
vn -0.634455 0.715071 -0.293497
vn -0.634455 0.715071 -0.293497
vn -0.002938 0.707234 0.706973
vn -0.002938 0.707234 0.706973
vn -0.240656 0.712878 0.658703
vn -0.240656 0.712878 0.658703
vn 0.002938 0.707234 0.706973
vn 0.002938 0.707234 0.706973
vn 0.240655 0.712879 0.658702
vn 0.240655 0.712879 0.658702
vn 0.706725 0.707457 0.006627
vn 0.706725 0.707457 0.006627
vn 0.634456 0.715070 0.293496
vn 0.634456 0.715070 0.293497
vn 0.706725 0.707457 -0.006627
vn 0.706725 0.707457 -0.006627
vn 0.634455 0.715070 -0.293497
vn 0.634456 0.715070 -0.293497
vn -0.002938 0.707234 -0.706973
vn -0.002938 0.707234 -0.706973
vn 0.002938 0.707234 -0.706973
vn 0.002938 0.707234 -0.706973
vn -0.240657 0.712878 -0.658703
vn -0.240658 0.712878 -0.658703
vn 0.240657 0.712879 -0.658702
vn 0.240657 0.712879 -0.658702
vn -0.464831 0.713845 0.523791
vn -0.464832 0.713845 0.523791
vn 0.464831 0.713845 0.523791
vn 0.464831 0.713845 0.523791
vn -0.464832 0.713844 -0.523792
vn -0.464832 0.713844 -0.523792
vn 0.464832 0.713845 -0.523791
vn 0.464832 0.713845 -0.523791
vn 0.000000 1.000000 0.000000
vn 0.000000 1.000000 0.000000
vn 0.000000 1.000000 0.000000
vn 0.000000 1.000000 0.000000
vn 0.000000 1.000000 0.000000
vn 0.000000 1.000000 0.000000
vn 0.000000 1.000000 0.000000
vn 0.000000 1.000000 0.000000
vn 0.000000 1.000000 0.000000
vn 0.000000 1.000000 0.000000
vn 0.000000 1.000000 0.000000
vn 0.000000 1.000000 0.000000
vn 0.000000 1.000000 0.000000
vn 0.000000 1.000000 0.000000
vn 0.000000 1.000000 0.000000
vn 0.000000 1.000000 0.000000
vn 0.000000 1.000000 0.000000
vn 0.000000 1.000000 0.000000
vn 0.000000 1.000000 0.000000
vn 0.000000 1.000000 0.000000
vn -0.003011 -0.707238 0.706969
vn -0.003011 -0.707238 0.706969
vn -0.241403 -0.712881 0.658427
vn -0.241404 -0.712881 0.658427
vn 0.003011 -0.707238 0.706969
vn 0.003011 -0.707238 0.706969
vn 0.241404 -0.712881 0.658426
vn 0.241403 -0.712881 0.658426
vn -0.706712 -0.707468 0.006847
vn -0.706712 -0.707468 0.006847
vn -0.706712 -0.707468 -0.006847
vn -0.706712 -0.707468 -0.006847
vn -0.634182 -0.715070 0.294089
vn -0.634181 -0.715070 0.294089
vn -0.634182 -0.715069 -0.294090
vn -0.634182 -0.715069 -0.294090
vn -0.003012 -0.707238 -0.706969
vn -0.003012 -0.707238 -0.706969
vn 0.003012 -0.707238 -0.706969
vn 0.003012 -0.707238 -0.706969
vn -0.241405 -0.712881 -0.658425
vn -0.241405 -0.712881 -0.658425
vn 0.241405 -0.712880 -0.658426
vn 0.241405 -0.712880 -0.658426
vn 0.706712 -0.707468 0.006847
vn 0.706712 -0.707468 0.006847
vn 0.634182 -0.715070 0.294090
vn 0.634182 -0.715070 0.294090
vn 0.706712 -0.707468 -0.006847
vn 0.706712 -0.707468 -0.006847
vn 0.634181 -0.715070 -0.294090
vn 0.634181 -0.715070 -0.294090
vn -0.465124 -0.713845 0.523531
vn -0.465124 -0.713845 0.523531
vn 0.465124 -0.713845 0.523531
vn 0.465125 -0.713845 0.523531
vn -0.465124 -0.713845 -0.523531
vn -0.465124 -0.713845 -0.523531
vn 0.465124 -0.713845 -0.523531
vn 0.465124 -0.713845 -0.523531
vn 0.000000 -1.000000 0.000000
vn 0.000000 -1.000000 0.000000
vn 0.000000 -1.000000 0.000000
vn 0.000000 -1.000000 0.000000
vn 0.000000 -1.000000 0.000000
vn 0.000000 -1.000000 0.000000
vn 0.000000 -1.000000 0.000000
vn 0.000000 -1.000000 0.000000
vn 0.000000 -1.000000 0.000000
vn 0.000000 -1.000000 0.000000
vn 0.000000 -1.000000 -0.000000
vn 0.000000 -1.000000 -0.000000
vn 0.000000 -1.000000 -0.000000
vn 0.000000 -1.000000 -0.000000
vn 0.000000 -1.000000 -0.000000
vn 0.000000 -1.000000 -0.000000
vn 0.000000 -1.000000 0.000000
vn 0.000000 -1.000000 0.000000
vn 0.000000 -1.000000 0.000000
vn 0.000000 -1.000000 0.000000
vn -0.004432 0.000000 0.999990
vn -0.004432 0.000000 0.999990
vn 0.004432 0.000000 0.999990
vn 0.004432 0.000000 0.999990
vn -0.004432 0.000000 -0.999990
vn -0.004432 0.000000 -0.999990
vn 0.004432 0.000000 -0.999990
vn 0.004432 0.000000 -0.999990
vn 0.999948 0.000000 0.010202
vn 0.999948 0.000000 0.010202
vn 0.999948 0.000000 -0.010202
vn 0.999948 0.000000 -0.010202
vn -0.999948 0.000000 -0.010202
vn -0.999948 0.000000 -0.010202
vn -0.999948 0.000000 0.010202
vn -0.999948 0.000000 0.010202
vn -0.906608 0.000000 0.421973
vn -0.906608 0.000000 0.421973
vn -0.664802 0.000000 0.747020
vn -0.664802 0.000000 0.747020
vn -0.345870 0.000000 0.938282
vn -0.345870 0.000000 0.938282
vn 0.345870 0.000000 0.938282
vn 0.345870 0.000000 0.938282
vn 0.664802 0.000000 0.747020
vn 0.664802 0.000000 0.747020
vn 0.906608 0.000000 0.421973
vn 0.906608 0.000000 0.421973
vn -0.906608 0.000000 -0.421975
vn -0.906608 0.000000 -0.421975
vn -0.664802 0.000000 -0.747020
vn -0.664802 0.000000 -0.747020
vn -0.345873 0.000000 -0.938281
vn -0.345873 0.000000 -0.938281
vn 0.345873 0.000000 -0.938281
vn 0.345873 0.000000 -0.938281
vn 0.664802 0.000000 -0.747020
vn 0.664802 0.000000 -0.747020
vn 0.906608 0.000000 -0.421975
vn 0.906608 0.000000 -0.421975
s 1
g pCube3
f 1/1/1 2/114/2 18/116/3 17/2/4
f 2/114/2 1/3/1 4/4/5 3/111/6
f 3/111/6 4/5/5 30/6/7 29/131/8
f 5/105/9 6/7/10 22/8/11 21/121/12
f 6/9/10 5/105/9 7/123/13 8/10/14
f 8/11/14 7/123/13 23/125/15 24/12/16
f 9/109/17 10/13/18 27/14/19 28/130/20
f 10/15/18 9/109/17 12/147/21 11/16/22
f 11/17/22 12/147/21 39/145/23 40/18/24
f 13/138/25 14/19/26 16/20/27 15/108/28
f 14/21/26 13/138/25 33/136/29 34/22/30
f 15/108/28 16/23/27 36/24/31 35/140/32
f 17/25/4 18/116/3 19/26/33 20/27/34
f 20/28/34 19/119/33 21/121/12 22/29/11
f 24/30/16 23/125/15 25/31/35 26/32/36
f 26/33/36 25/128/35 28/130/20 27/34/19
f 29/131/8 30/35/7 32/36/37 31/133/38
f 31/37/38 32/38/37 34/39/30 33/136/29
f 35/140/32 36/40/31 38/41/39 37/142/40
f 37/42/40 38/43/39 40/44/24 39/145/23
s 5
f 8/45/41 16/53/42 14/46/43 6/56/44
f 40/47/45 38/48/46 26/54/47 27/49/48 10/50/49 11/51/50
f 24/52/51 36/55/52 16/53/42 8/45/41
f 26/54/47 38/48/46 36/55/52 24/52/51
f 6/56/44 14/46/43 34/57/53 22/58/54
f 22/58/54 34/57/53 32/59/55 20/60/56
f 20/60/56 32/59/55 30/61/57 4/62/58 1/63/59 17/64/60
s 7
f 41/100/61 42/65/62 62/82/63 61/102/64
f 42/65/62 41/100/61 43/94/65 44/66/66
f 44/66/66 43/94/65 63/98/67 64/67/68
f 45/69/69 46/68/70 48/71/71 47/91/72
f 46/68/70 45/69/69 57/80/73 58/70/74
f 47/91/72 48/71/71 70/85/75 69/92/76
f 49/101/77 50/72/78 52/74/79 51/99/80
f 50/72/78 49/101/77 73/103/81 74/73/82
f 51/99/80 52/74/79 76/87/83 75/93/84
f 53/76/85 54/75/86 68/84/87 67/95/88
f 54/75/86 53/76/85 55/78/89 56/77/90
f 56/77/90 55/78/89 79/89/91 80/79/92
f 58/70/74 57/80/73 59/104/93 60/81/94
f 60/81/94 59/104/93 61/102/64 62/82/63
f 64/67/68 63/98/67 65/96/95 66/83/96
f 66/83/96 65/96/95 67/95/88 68/84/87
f 69/92/76 70/85/75 72/86/97 71/90/98
f 71/90/98 72/86/97 74/73/82 73/103/81
f 75/93/84 76/87/83 78/88/99 77/97/100
f 77/97/100 78/88/99 80/79/92 79/89/91
s 11
f 71/90/101 59/104/102 57/80/103 45/69/104 47/91/105 69/92/106
f 75/93/107 63/98/108 43/94/109 51/99/110
f 55/78/111 53/76/112 67/95/113 65/96/114 77/97/115 79/89/116
f 77/97/115 65/96/114 63/98/108 75/93/107
f 51/99/110 43/94/109 41/100/117 49/101/118
f 49/101/118 41/100/117 61/102/119 73/103/120
f 73/103/120 61/102/119 59/104/102 71/90/101
s 13
f 5/105/121 42/120/122 44/106/123 7/123/124
f 50/107/125 13/138/126 15/108/127 52/141/128
f 9/109/129 54/129/130 56/110/131 12/147/132
f 3/111/133 48/132/134 46/112/135 2/114/136
f 46/112/135 58/113/137 18/116/138 2/114/136
f 58/113/137 60/115/139 19/26/140 18/116/138
f 60/117/139 62/118/141 21/121/142 19/119/140
f 62/118/141 42/120/122 5/105/121 21/121/142
f 44/106/123 64/122/143 23/125/144 7/123/124
f 64/122/143 66/124/145 25/31/146 23/125/144
f 66/126/145 68/127/147 28/130/148 25/128/146
f 68/127/147 54/129/130 9/109/129 28/130/148
f 3/111/133 29/131/149 70/135/150 48/132/134
f 29/131/149 31/133/151 72/134/152 70/135/150
f 31/37/151 33/136/153 74/139/154 72/137/152
f 33/136/153 13/138/126 50/107/125 74/139/154
f 15/108/127 35/140/155 76/144/156 52/141/128
f 35/140/155 37/142/157 78/143/158 76/144/156
f 37/42/157 39/145/159 80/148/160 78/146/158
f 39/145/159 12/147/132 56/110/131 80/148/160
